<?xml version="1.0" encoding="UTF-8"?>
<svg id="Layer_2" data-name="Layer 2" xmlns="http://www.w3.org/2000/svg" viewBox="0 0 102.59 133.21">
  <defs>
    <style>
      .cls-1 {
        fill: #fcd131;
      }

      .cls-2 {
        fill: #e6e6e6;
      }

      .cls-3 {
        stroke: #fcd131;
        stroke-linecap: round;
        stroke-linejoin: round;
      }

      .cls-3, .cls-4 {
        fill: none;
      }

      .cls-5 {
        fill: #fff;
      }

      .cls-6 {
        fill: #eabd14;
      }

      .cls-4 {
        stroke: #e9ebec;
        stroke-miterlimit: 4;
      }
    </style>
  </defs>
  <g id="gazetka">
    <path class="cls-5" d="M71.1,132.33L4.67,117.39c-2.61-.62-4.72-3.85-4.11-6.46L25.38,2.73c.05-.21,5.27-2.27,5.48-2.23l68.39,15.74c2.06.44,2.8,5,2.32,7.05l-20.63,92.11-3.2,13.6c-.61,2.61-4.04,3.94-6.64,3.32Z"/>
    <path class="cls-2" d="M71.06,133.05L4.74,117.97c-3.28-.75-5.33-4.01-4.59-7.29L24.24,4.74c.75-3.28,4.01-5.33,7.29-4.59l66.32,15.08c3.28.75,5.33,4.01,4.59,7.29l-24.09,105.95c-.75,3.28-4.01,5.33-7.29,4.59ZM5.76,117.33l64.65,14.7c3.28.75,6.54-1.31,7.29-4.59l23.71-104.28c.75-3.28-1.31-6.54-4.59-7.29L32.18,1.18c-3.28-.75-6.54,1.31-7.29,4.59L1.18,110.04c-.75,3.28,1.31,6.54,4.59,7.29h0Z"/>
    <path class="cls-6" d="M81.23,14.54L27.12,7.76l-8.05,35.39,51.89,17.32c2.04.46,4.2-.13,5.86-1.61l16.27-14.5c1.06-.95,1.45-2.52.95-3.86l-8.11-21.71c-.82-2.18-2.56-3.76-4.69-4.25h0Z"/>
    <path class="cls-1" d="M77.9,13.78L24.46,4.48l-9.87,42.21,53.04,13.02c2.04.46,4.2-.13,5.86-1.61l16.27-14.5c1.06-.95,1.45-2.52.95-3.86l-8.11-21.71c-.82-2.18-2.56-3.76-4.69-4.25Z"/>
    <path class="cls-5" d="M36.53,25.98c-.14.69-.43,1.28-.86,1.79-.43.5-1.01.85-1.73,1.07-.72.21-1.57.22-2.54.02l-1.79-.37-.88,4.25-2.89-.6,2.45-11.85,4.68.97c.95.2,1.71.52,2.3.98.59.46.98,1.01,1.19,1.65.21.64.24,1.33.08,2.08ZM31.64,26.53c.55.11.99.07,1.31-.13.32-.2.53-.54.63-1.01.1-.47.04-.87-.18-1.18-.22-.31-.6-.53-1.15-.64l-1.57-.32-.61,2.97,1.57.32ZM40.88,27.08c.44-.45.95-.77,1.52-.95.57-.2,1.16-.24,1.78-.11l-.63,3.06-.79-.16c-.72-.15-1.29-.1-1.72.14-.42.23-.71.73-.87,1.51l-.9,4.37-2.89-.6,1.94-9.42,2.89.6-.32,1.57ZM47.85,36.84c-.92-.19-1.72-.56-2.38-1.11-.65-.54-1.11-1.23-1.39-2.05-.27-.82-.3-1.72-.1-2.69.2-.97.59-1.77,1.17-2.42.58-.65,1.28-1.1,2.11-1.34.82-.24,1.7-.27,2.62-.08.92.19,1.72.56,2.38,1.11.66.55,1.13,1.24,1.4,2.07.28.82.32,1.71.12,2.68-.2.97-.6,1.78-1.19,2.43-.58.64-1.29,1.08-2.12,1.32-.82.24-1.7.27-2.62.08ZM48.37,34.34c.55.11,1.06,0,1.53-.32.48-.32.79-.86.95-1.62.16-.75.08-1.37-.22-1.86-.29-.48-.71-.78-1.26-.89-.56-.12-1.07,0-1.53.32-.45.32-.76.86-.92,1.62-.16.75-.1,1.37.18,1.85.29.48.71.78,1.26.89ZM68.32,31c1.17.24,2.03.79,2.57,1.64.55.85.7,1.91.44,3.17l-1.14,5.5-2.87-.59,1.06-5.12c.13-.61.06-1.11-.2-1.5-.25-.4-.65-.66-1.21-.78-.56-.12-1.04-.04-1.44.23-.38.26-.64.7-.76,1.3l-1.06,5.12-2.87-.59,1.06-5.12c.13-.61.06-1.11-.2-1.5-.25-.4-.65-.66-1.21-.78s-1.04-.04-1.44.23c-.38.26-.64.7-.76,1.3l-1.06,5.12-2.89-.6,1.94-9.42,2.89.6-.24,1.18c.37-.33.82-.56,1.34-.69.52-.14,1.08-.15,1.68-.02.71.15,1.31.43,1.8.85.5.42.85.94,1.05,1.57.43-.45.96-.78,1.6-.99.63-.21,1.28-.25,1.94-.11ZM76.47,42.75c-.92-.19-1.71-.56-2.38-1.11-.65-.54-1.11-1.23-1.39-2.05-.27-.82-.3-1.72-.1-2.69.2-.97.59-1.77,1.17-2.42.58-.65,1.28-1.1,2.11-1.34.82-.24,1.7-.27,2.62-.08.92.19,1.72.56,2.38,1.11.66.55,1.13,1.24,1.4,2.07.28.82.32,1.71.12,2.68-.2.97-.6,1.78-1.19,2.43-.58.64-1.29,1.08-2.12,1.32-.82.24-1.7.27-2.62.08ZM76.99,40.25c.55.11,1.06,0,1.53-.32.48-.32.79-.86.95-1.62.16-.75.08-1.37-.22-1.86-.29-.48-.71-.78-1.26-.89-.56-.12-1.07,0-1.53.32-.45.32-.76.86-.92,1.62-.16.75-.1,1.37.18,1.85.29.48.71.78,1.26.89Z"/>
  </g>
  <g id="jaja">
    <g>
      <rect class="cls-4" x="43.64" y="95.94" width="30.29" height="26.58" rx="4.28" ry="4.28" transform="translate(26.59 -10.56) rotate(13.25)"/>
      <g>
        <path class="cls-3" d="M50.7,110.37l.45,3.8c.04.35.3.64.65.72l1.93.44c.38.09.77-.1.94-.46l.72-1.5c.1-.22.43-.14.43.1v1.67c0,.39.27.73.65.82l1.85.42c.38.09.77-.1.94-.46l.72-1.51c.1-.22.43-.14.43.1v1.67c0,.39.27.73.65.82l1.93.44c.35.08.71-.07.9-.37l2.05-3.24"/>
        <path class="cls-3" d="M65.93,112.94l-14.83-3.38c-.3-.07-.49-.37-.42-.67l.13-.55c.07-.3.37-.49.67-.42l14.83,3.38c.3.07.49.37.42.67l-.13.55c-.07.3-.37.49-.67.42"/>
        <polyline class="cls-3" points="65.92 109.23 66.65 106.01 53.45 103.01 52.7 106.29"/>
        <path class="cls-3" d="M66.67,110.5l.34-.57c.06-.11.11-.22.14-.34l.76-3.33c.15-.67-.27-1.34-.94-1.5l-13.26-3.02c-.67-.15-1.34.27-1.5.94l-.76,3.33c-.03.12-.04.25-.02.37l.07.78"/>
        <g>
          <path class="cls-3" d="M55.91,101.56l.36-.63c.1-.17.29-.26.49-.21l.78.18c.19.04.33.21.35.4l.05.72"/>
          <path class="cls-3" d="M63.02,103.18l.36-.63c.1-.17.29-.26.49-.21l.78.18c.19.04.33.21.35.4l.05.72"/>
        </g>
        <g>
          <path class="cls-3" d="M53.44,107.41c.25-1.11,1.13-1.85,1.97-1.66s1.31,1.24,1.06,2.35"/>
          <path class="cls-3" d="M57.58,108.35c.25-1.11,1.13-1.85,1.97-1.66s1.31,1.24,1.06,2.35"/>
          <path class="cls-3" d="M61.72,109.3c.25-1.11,1.13-1.85,1.97-1.66s1.31,1.24,1.06,2.35"/>
        </g>
      </g>
    </g>
  </g>
  <g id="milk">
    <g>
      <rect class="cls-4" x="50.46" y="64.71" width="30.29" height="26.58" rx="4.28" ry="4.28" transform="translate(19.62 -12.96) rotate(13.25)"/>
      <g>
        <g>
          <path class="cls-3" d="M68.86,87.45l2.88-12.24-.86-2.83.51-2.15-6.65-1.56-.51,2.15-2.03,2.15-2.88,12.24c-.1.42.16.83.58.93l8.03,1.89c.42.1.83-.16.93-.58Z"/>
          <line class="cls-3" x1="64.23" y1="70.81" x2="70.88" y2="72.38"/>
          <line class="cls-3" x1="71.74" y1="75.21" x2="62.2" y2="72.96"/>
        </g>
        <line class="cls-3" x1="63.69" y1="78.74" x2="67.83" y2="79.71"/>
        <line class="cls-3" x1="62.42" y1="80.77" x2="68.07" y2="82.09"/>
      </g>
    </g>
  </g>
  <g id="frozen">
    <g>
      <rect class="cls-4" x="8.35" y="87.1" width="30.29" height="26.58" rx="4.28" ry="4.28" transform="translate(23.63 -2.71) rotate(13.25)"/>
      <g>
        <polyline class="cls-3" points="17.3 105.79 18.13 106.34 19.16 106.21 20.01 106.79 21.03 106.65 21.89 107.23 22.91 107.09 23.76 107.67 24.78 107.54 25.64 108.11 26.63 107.98"/>
        <path class="cls-3" d="M20.36,92.8c-.07.96-.21,1.91-.43,2.85l-1.74,7.39c-.22.94-.52,1.85-.88,2.74"/>
        <polyline class="cls-3" points="20.36 92.8 21.35 92.67 22.21 93.24 23.23 93.11 24.09 93.69 25.11 93.55 25.96 94.13 26.98 93.99 27.84 94.57 28.86 94.44 29.69 95"/>
        <path class="cls-3" d="M29.69,95c-.37.89-.66,1.8-.88,2.74l-1.74,7.39c-.22.94-.37,1.89-.43,2.85"/>
        <g>
          <line class="cls-3" x1="20.2" y1="94.25" x2="29.19" y2="96.37"/>
          <line class="cls-3" x1="17.78" y1="104.52" x2="26.77" y2="106.64"/>
        </g>
        <g>
          <g>
            <polyline class="cls-3" points="23.96 98.43 23.48 100.44 23.01 102.45"/>
            <g>
              <polyline class="cls-3" points="23.24 97.36 23.6 97.9 23.96 98.43 24.52 98.11 25.08 97.79"/>
              <polyline class="cls-3" points="21.89 103.09 22.45 102.77 23.01 102.45 23.37 102.98 23.73 103.52"/>
            </g>
          </g>
          <g>
            <polyline class="cls-3" points="25.41 99.68 23.48 100.44 21.56 101.2"/>
            <g>
              <polyline class="cls-3" points="25.88 98.49 25.64 99.08 25.41 99.68 25.99 99.96 26.57 100.24"/>
              <polyline class="cls-3" points="20.4 100.64 20.98 100.92 21.56 101.2 21.33 101.8 21.09 102.4"/>
            </g>
          </g>
          <g>
            <polyline class="cls-3" points="24.87 101.98 24.87 101.97 23.48 100.44 22.1 98.91 22.1 98.91"/>
            <g>
              <polyline class="cls-3" points="24.75 103.26 24.81 102.62 24.87 101.98 25.51 101.99 26.15 102"/>
              <polyline class="cls-3" points="20.82 98.89 21.46 98.9 22.1 98.91 22.16 98.27 22.22 97.62"/>
            </g>
          </g>
        </g>
      </g>
    </g>
  </g>
  <g id="owoce">
    <g>
      <rect class="cls-4" x="15.56" y="56.49" width="30.29" height="26.58" rx="4.28" ry="4.28" transform="translate(16.8 -5.18) rotate(13.25)"/>
      <g>
        <g>
          <path class="cls-3" d="M26.43,74.92c.31.36.72.58,1.21.56,1.48-.04,2.96-.88,3.39-2.72s-.35-3.83-1.82-3.95c-.46-.04-.95.05-1.4.25h0c-.32-.38-.71-.68-1.14-.85-1.37-.55-2.96.88-3.39,2.72s.52,3.26,1.82,3.95c.43.23.89.22,1.34.03"/>
          <path class="cls-3" d="M27.83,69.03c.14-.4.28-.8.52-1.14.25-.34.63-.6,1.05-.61"/>
          <path class="cls-3" d="M27.39,66.6c.49.41.88.66.97,1.29"/>
          <path class="cls-3" d="M28.16,67.33c-.39.43-1.1.41-1.59-.04-.49-.45-.77-2.12-.77-2.12,0,0,1.69.14,2.18.58.21.19.34.43.4.68"/>
        </g>
        <g>
          <path class="cls-3" d="M34.37,66c.05-.38.1-.76.03-1.13-.07-.37-.27-.74-.6-.92"/>
          <path class="cls-3" d="M35.71,64.21c-.56.13-.98.18-1.3.65"/>
          <path class="cls-3" d="M35.47,65.1c.19.05.41.05.63-.01.58-.17,1.48-1.41,1.48-1.41,0,0-1.42-.57-2-.41-.58.17-.93.71-.78,1.21"/>
          <path class="cls-3" d="M30.08,75.63c.49.43,1.12.75,1.83.91h0c2.05.48,4.03-.43,4.57-2.73.19-.81.09-1.62-.23-2.32v-.03c-.35-.87-.41-1.82-.2-2.72.14-.6.03-1.2-.26-1.7-.29-.49-.77-.88-1.36-1.03h-.06s-.02-.02-.02-.02c-1.2-.26-2.39.52-2.67,1.71-.11.45-.28.88-.51,1.28-.05.08-.09.16-.14.23"/>
        </g>
      </g>
    </g>
  </g>
</svg>