<svg width="55" height="55" viewBox="0 0 55 55" fill="none" xmlns="http://www.w3.org/2000/svg">
<rect width="55" height="55" rx="8" fill="#FDE900"/>
<path d="M46.1077 32V14.0444L41.8487 15.2028V11.0461L48.3564 8.14999H51.4228V32H46.1077Z" fill="#E81A24"/>
<path d="M28.6327 30.0239V14.2829H32.9257V30.0239H28.6327ZM22.2955 24.2658V20.0069H39.229V24.2658H22.2955Z" fill="#E81A24"/>
<path d="M2.89896 32V28.2181C4.28453 27.0824 5.64739 25.958 6.98753 24.845C8.35039 23.732 9.56561 22.6304 10.6332 21.5401C11.7235 20.4271 12.5866 19.3482 13.2226 18.3033C13.8586 17.2357 14.1766 16.2136 14.1766 15.2369C14.1766 14.669 14.063 14.1466 13.8359 13.6696C13.6315 13.1699 13.3021 12.7837 12.8478 12.5111C12.4162 12.2159 11.837 12.0682 11.1102 12.0682C10.406 12.0682 9.80411 12.2272 9.30439 12.5452C8.80468 12.8632 8.42989 13.3061 8.18003 13.874C7.93018 14.4191 7.80525 15.0552 7.80525 15.782H2.86489C2.93303 13.9649 3.34189 12.4544 4.09146 11.2505C4.84103 10.0466 5.84046 9.16079 7.08975 8.59293C8.36175 8.02508 9.75868 7.74115 11.2805 7.74115C13.0522 7.74115 14.5287 8.07051 15.7098 8.72922C16.891 9.36522 17.7768 10.2284 18.3674 11.3186C18.9807 12.3862 19.2873 13.5787 19.2873 14.8961C19.2873 15.941 19.1056 16.9518 18.7422 17.9285C18.3787 18.8825 17.879 19.8138 17.243 20.7224C16.607 21.6082 15.8802 22.4714 15.0625 23.3118C14.2675 24.1295 13.427 24.9245 12.5412 25.6968C11.6553 26.4464 10.7808 27.1619 9.91768 27.8433H19.7643V32H2.89896Z" fill="#E81A24"/>
<path d="M47.4512 47.1954C46.7427 47.1954 46.0506 47.1181 45.3747 46.9634C44.707 46.8005 44.1574 46.5847 43.7258 46.316L44.6541 44.2151C45.0612 44.4513 45.5172 44.6426 46.0221 44.7892C46.527 44.9276 47.0115 44.9969 47.4756 44.9969C47.8746 44.9969 48.1596 44.9602 48.3306 44.8869C48.5016 44.8055 48.5871 44.6874 48.5871 44.5327C48.5871 44.3536 48.4731 44.2192 48.2451 44.1296C48.0252 44.0401 47.6588 43.9424 47.1458 43.8365C46.4862 43.6981 45.9366 43.5515 45.4969 43.3968C45.0572 43.2339 44.6745 42.9734 44.3487 42.6151C44.023 42.2486 43.8602 41.756 43.8602 41.1371C43.8602 40.5997 44.0108 40.1111 44.3121 39.6714C44.6134 39.2317 45.0612 38.8856 45.6557 38.6332C46.2582 38.3808 46.987 38.2546 47.842 38.2546C48.4283 38.2546 49.0024 38.3197 49.5642 38.45C50.1342 38.5721 50.635 38.7554 51.0666 38.9996L50.1994 41.0883C49.3607 40.6649 48.5667 40.4531 47.8176 40.4531C47.0766 40.4531 46.7061 40.6323 46.7061 40.9906C46.7061 41.1616 46.816 41.2919 47.0359 41.3814C47.2557 41.4629 47.6181 41.5524 48.123 41.6501C48.7744 41.7723 49.324 41.9148 49.7719 42.0776C50.2197 42.2324 50.6065 42.4889 50.9322 42.8471C51.2661 43.2054 51.433 43.694 51.433 44.3129C51.433 44.8503 51.2824 45.3389 50.9811 45.7786C50.6798 46.2101 50.2279 46.5562 49.6253 46.8168C49.0309 47.0692 48.3062 47.1954 47.4512 47.1954Z" fill="#E81A24"/>
<path d="M39.993 38.45H42.8756V47H39.993V38.45Z" fill="#E81A24"/>
<path d="M33.8578 40.6852H31.3539V38.45H39.2443V40.6852H36.7404V47H33.8578V40.6852Z" fill="#E81A24"/>
<path d="M28.4163 45.5099H25.1673L24.5932 47H21.6618L25.3993 38.45H28.233L31.9706 47H28.9903L28.4163 45.5099ZM27.6223 43.4334L26.7918 41.2837L25.9612 43.4334H27.6223Z" fill="#E81A24"/>
<path d="M17.1533 44.8503H16.3715V47H13.489V38.45H17.6052C18.395 38.45 19.0831 38.5803 19.6694 38.8409C20.2557 39.1014 20.7076 39.476 21.0252 39.9646C21.3428 40.4532 21.5015 41.0232 21.5015 41.6746C21.5015 42.2853 21.3631 42.8187 21.0863 43.2747C20.8094 43.7307 20.4104 44.093 19.8893 44.3617L21.6848 47H18.6068L17.1533 44.8503ZM18.5945 41.6746C18.5945 41.357 18.4968 41.1127 18.3014 40.9417C18.106 40.7626 17.8128 40.673 17.422 40.673H16.3715V42.6762H17.422C17.8128 42.6762 18.106 42.5907 18.3014 42.4197C18.4968 42.2405 18.5945 41.9922 18.5945 41.6746Z" fill="#E81A24"/>
<path d="M9.75684 42.4929H12.2608V46.1084C11.7559 46.4585 11.1696 46.7272 10.5019 46.9145C9.8342 47.1018 9.1787 47.1954 8.53541 47.1954C7.62341 47.1954 6.80506 47.0081 6.08034 46.6336C5.35563 46.2509 4.78563 45.7216 4.37034 45.0457C3.9632 44.3617 3.75963 43.5881 3.75963 42.725C3.75963 41.8619 3.9632 41.0924 4.37034 40.4165C4.78563 39.7325 5.3597 39.2032 6.09256 38.8286C6.83356 38.4459 7.6682 38.2546 8.59649 38.2546C9.4352 38.2546 10.1843 38.3971 10.8439 38.6821C11.5116 38.9589 12.0653 39.3661 12.5051 39.9035L10.6607 41.528C10.1233 40.901 9.48406 40.5875 8.74306 40.5875C8.10791 40.5875 7.60306 40.7789 7.22849 41.1616C6.85391 41.5443 6.66663 42.0654 6.66663 42.725C6.66663 43.3683 6.84984 43.8854 7.21627 44.2762C7.59084 44.6671 8.08756 44.8625 8.70641 44.8625C9.07284 44.8625 9.42299 44.7933 9.75684 44.6549V42.4929Z" fill="#E81A24"/>
</svg>
