<svg width="55" height="55" viewBox="0 0 55 55" fill="none" xmlns="http://www.w3.org/2000/svg">
<rect width="55" height="55" rx="8" fill="#FDE900"/>
<path d="M42.9088 33V14.3668L38.4891 15.5689V11.2554L45.2423 8.25H48.4245V33H42.9088Z" fill="#E81A24"/>
<path d="M24.7744 30.9493V14.6143H29.2294V30.9493H24.7744ZM18.198 24.9739V20.5543H35.7705V24.9739H18.198Z" fill="#E81A24"/>
<path d="M8.72561 33V14.3668L4.30596 15.5689V11.2554L11.0592 8.25H14.2413V33H8.72561Z" fill="#E81A24"/>
<path d="M47.9512 47.1954C47.2427 47.1954 46.5506 47.1181 45.8747 46.9634C45.207 46.8005 44.6574 46.5847 44.2258 46.316L45.1541 44.2151C45.5612 44.4513 46.0172 44.6426 46.5221 44.7892C47.027 44.9276 47.5115 44.9969 47.9756 44.9969C48.3746 44.9969 48.6596 44.9602 48.8306 44.8869C49.0016 44.8055 49.0871 44.6874 49.0871 44.5327C49.0871 44.3536 48.9731 44.2192 48.7451 44.1296C48.5252 44.0401 48.1588 43.9424 47.6458 43.8365C46.9862 43.6981 46.4366 43.5515 45.9969 43.3968C45.5572 43.2339 45.1745 42.9734 44.8487 42.6151C44.523 42.2486 44.3602 41.756 44.3602 41.1371C44.3602 40.5997 44.5108 40.1111 44.8121 39.6714C45.1134 39.2317 45.5612 38.8856 46.1557 38.6332C46.7582 38.3808 47.487 38.2546 48.342 38.2546C48.9283 38.2546 49.5024 38.3197 50.0642 38.45C50.6342 38.5721 51.135 38.7554 51.5666 38.9996L50.6994 41.0883C49.8607 40.6649 49.0667 40.4531 48.3176 40.4531C47.5766 40.4531 47.2061 40.6323 47.2061 40.9906C47.2061 41.1616 47.316 41.2919 47.5359 41.3814C47.7557 41.4629 48.1181 41.5524 48.623 41.6501C49.2744 41.7723 49.824 41.9148 50.2719 42.0776C50.7197 42.2324 51.1065 42.4889 51.4322 42.8471C51.7661 43.2054 51.933 43.694 51.933 44.3129C51.933 44.8503 51.7824 45.3389 51.4811 45.7786C51.1798 46.2101 50.7279 46.5562 50.1253 46.8168C49.5309 47.0692 48.8062 47.1954 47.9512 47.1954Z" fill="#E81A24"/>
<path d="M40.493 38.45H43.3756V47H40.493V38.45Z" fill="#E81A24"/>
<path d="M34.3578 40.6852H31.8539V38.45H39.7443V40.6852H37.2404V47H34.3578V40.6852Z" fill="#E81A24"/>
<path d="M28.9163 45.5099H25.6673L25.0932 47H22.1618L25.8993 38.45H28.733L32.4706 47H29.4903L28.9163 45.5099ZM28.1223 43.4334L27.2918 41.2837L26.4612 43.4334H28.1223Z" fill="#E81A24"/>
<path d="M17.6533 44.8503H16.8715V47H13.989V38.45H18.1052C18.895 38.45 19.5831 38.5803 20.1694 38.8409C20.7557 39.1014 21.2076 39.476 21.5252 39.9646C21.8428 40.4532 22.0015 41.0232 22.0015 41.6746C22.0015 42.2853 21.8631 42.8187 21.5863 43.2747C21.3094 43.7307 20.9104 44.093 20.3893 44.3617L22.1848 47H19.1068L17.6533 44.8503ZM19.0945 41.6746C19.0945 41.357 18.9968 41.1127 18.8014 40.9417C18.606 40.7626 18.3128 40.673 17.922 40.673H16.8715V42.6762H17.922C18.3128 42.6762 18.606 42.5907 18.8014 42.4197C18.9968 42.2405 19.0945 41.9922 19.0945 41.6746Z" fill="#E81A24"/>
<path d="M10.2568 42.4929H12.7608V46.1084C12.2559 46.4585 11.6696 46.7272 11.0019 46.9145C10.3342 47.1018 9.6787 47.1954 9.03541 47.1954C8.12341 47.1954 7.30506 47.0081 6.58034 46.6336C5.85563 46.2509 5.28563 45.7216 4.87034 45.0457C4.4632 44.3617 4.25963 43.5881 4.25963 42.725C4.25963 41.8619 4.4632 41.0924 4.87034 40.4165C5.28563 39.7325 5.8597 39.2032 6.59256 38.8286C7.33356 38.4459 8.1682 38.2546 9.09648 38.2546C9.9352 38.2546 10.6843 38.3971 11.3439 38.6821C12.0116 38.9589 12.5653 39.3661 13.0051 39.9035L11.1607 41.528C10.6233 40.901 9.98406 40.5875 9.24306 40.5875C8.60791 40.5875 8.10306 40.7789 7.72848 41.1616C7.35391 41.5443 7.16663 42.0654 7.16663 42.725C7.16663 43.3683 7.34984 43.8854 7.71627 44.2762C8.09084 44.6671 8.58756 44.8625 9.20641 44.8625C9.57284 44.8625 9.92298 44.7933 10.2568 44.6549V42.4929Z" fill="#E81A24"/>
</svg>
