<svg width="55" height="35" viewBox="0 0 55 35" fill="none" xmlns="http://www.w3.org/2000/svg">
<rect width="55" height="35" rx="8" fill="#EE262F"/>
<path d="M48.6766 12V8.65008H47.5021V7.95001H50.719V8.65008H49.5445V12H48.6766Z" fill="white"/>
<path d="M43.8407 12V7.95001H44.7086V9.48323L46.1087 7.95001H47.1733L45.6864 9.55266L47.2254 12H46.1608L45.0673 10.2238L44.7086 10.6114V12H43.8407Z" fill="white"/>
<path d="M41.4318 12.0694C41.1271 12.0694 40.8494 12.0097 40.5986 11.8901C40.3518 11.7667 40.1551 11.5834 40.0085 11.3404C39.8658 11.0974 39.7944 10.7908 39.7944 10.4205V7.95001H40.6623V10.4263C40.6623 10.6076 40.6912 10.7619 40.7491 10.8892C40.8108 11.0164 40.8995 11.1129 41.0152 11.1784C41.1348 11.2402 41.2775 11.271 41.4434 11.271C41.6131 11.271 41.7558 11.2402 41.8715 11.1784C41.9911 11.1129 42.0817 11.0164 42.1434 10.8892C42.2051 10.7619 42.236 10.6076 42.236 10.4263V7.95001H43.1039V10.4205C43.1039 10.7908 43.0267 11.0974 42.8724 11.3404C42.722 11.5834 42.5195 11.7667 42.2649 11.8901C42.0142 12.0097 41.7365 12.0694 41.4318 12.0694Z" fill="white"/>
<path d="M35.7046 12V7.95001H37.1105C37.5811 7.95001 37.9687 8.03487 38.2734 8.20458C38.582 8.37044 38.8096 8.60573 38.9561 8.91044C39.1066 9.2113 39.1818 9.56616 39.1818 9.97501C39.1818 10.38 39.1066 10.7349 38.9561 11.0396C38.8096 11.3404 38.582 11.5757 38.2734 11.7454C37.9687 11.9152 37.5811 12 37.1105 12H35.7046ZM36.5724 11.2537H37.0584C37.3709 11.2537 37.6177 11.2035 37.799 11.1032C37.9803 10.9991 38.1076 10.8525 38.1809 10.6635C38.258 10.4707 38.2966 10.2412 38.2966 9.97501C38.2966 9.70501 38.258 9.47551 38.1809 9.28651C38.1076 9.09366 37.9803 8.94708 37.799 8.8468C37.6177 8.74266 37.3709 8.69058 37.0584 8.69058H36.5724V11.2537Z" fill="white"/>
<path d="M33.0424 12.0694C32.6451 12.0694 32.296 11.9807 31.9952 11.8033C31.6943 11.6259 31.4571 11.3809 31.2835 11.0685C31.1138 10.7522 31.0289 10.3877 31.0289 9.97501C31.0289 9.5623 31.1138 9.19973 31.2835 8.8873C31.4571 8.57101 31.6943 8.32416 31.9952 8.14673C32.296 7.9693 32.6451 7.88058 33.0424 7.88058C33.4397 7.88058 33.7907 7.9693 34.0954 8.14673C34.4001 8.32416 34.6354 8.57101 34.8012 8.8873C34.9709 9.19973 35.0558 9.5623 35.0558 9.97501C35.0558 10.3877 34.9709 10.7522 34.8012 11.0685C34.6354 11.3809 34.4001 11.6259 34.0954 11.8033C33.7907 11.9807 33.4397 12.0694 33.0424 12.0694ZM33.0424 11.2884C33.2777 11.2884 33.4782 11.2344 33.6441 11.1264C33.8138 11.0184 33.9449 10.8679 34.0375 10.6751C34.1301 10.4784 34.1764 10.245 34.1764 9.97501C34.1764 9.70501 34.1301 9.47358 34.0375 9.28073C33.9449 9.08401 33.8138 8.93358 33.6441 8.82944C33.4782 8.72144 33.2777 8.66744 33.0424 8.66744C32.8148 8.66744 32.6162 8.72144 32.4464 8.82944C32.2767 8.93358 32.1456 9.08401 32.053 9.28073C31.9604 9.47358 31.9142 9.70501 31.9142 9.97501C31.9142 10.245 31.9604 10.4784 32.053 10.6751C32.1456 10.8679 32.2767 11.0184 32.4464 11.1264C32.6162 11.2344 32.8148 11.2884 33.0424 11.2884Z" fill="white"/>
<path d="M27.4498 12V7.95001H29.0235C29.3513 7.95001 29.6233 8.00787 29.8393 8.12358C30.0591 8.23544 30.2211 8.38587 30.3253 8.57487C30.4333 8.76387 30.4873 8.97408 30.4873 9.20551C30.4873 9.42151 30.4352 9.62401 30.331 9.81301C30.2308 10.002 30.0726 10.1544 29.8566 10.2701C29.6406 10.3858 29.361 10.4437 29.0177 10.4437H28.3176V12H27.4498ZM29.5384 12L28.7226 10.2296H29.6541L30.522 12H29.5384ZM28.3176 9.8188H28.9714C29.1874 9.8188 29.3455 9.76673 29.4458 9.66258C29.55 9.55844 29.602 9.41766 29.602 9.24023C29.602 9.06666 29.55 8.92973 29.4458 8.82944C29.3455 8.7253 29.1874 8.67323 28.9714 8.67323H28.3176V9.8188Z" fill="white"/>
<path d="M23.8393 12V7.95001H25.4131C25.7448 7.95001 26.0186 8.00594 26.2346 8.1178C26.4545 8.22966 26.6184 8.38394 26.7264 8.58066C26.8344 8.77351 26.8884 8.99144 26.8884 9.23444C26.8884 9.46201 26.8363 9.67223 26.7322 9.86508C26.6281 10.0579 26.468 10.2142 26.252 10.3337C26.036 10.4533 25.7563 10.5131 25.4131 10.5131H24.7072V12H23.8393ZM24.7072 9.8188H25.3552C25.5828 9.8188 25.7467 9.76673 25.847 9.66258C25.9511 9.55458 26.0032 9.41187 26.0032 9.23444C26.0032 9.05316 25.9511 8.91237 25.847 8.81208C25.7467 8.70794 25.5828 8.65587 25.3552 8.65587H24.7072V9.8188Z" fill="white"/>
<path d="M20.89 12V7.95001H21.7578V12H20.89Z" fill="white"/>
<path d="M18.1464 12.0694C17.7607 12.0694 17.4232 11.9846 17.1339 11.8149C16.8485 11.6413 16.6267 11.4002 16.4685 11.0917C16.3104 10.7831 16.2313 10.4224 16.2313 10.0097C16.2313 9.59316 16.3123 9.2248 16.4743 8.90466C16.6402 8.58451 16.8774 8.3338 17.186 8.15251C17.4945 7.97123 17.8629 7.88058 18.291 7.88058C18.7732 7.88058 19.1724 7.9963 19.4887 8.22773C19.8088 8.45916 20.0152 8.7793 20.1077 9.18816H19.1415C19.0837 9.02616 18.9815 8.9008 18.8349 8.81208C18.6922 8.72337 18.509 8.67901 18.2852 8.67901C18.0307 8.67901 17.8166 8.73494 17.643 8.8468C17.4695 8.9548 17.3383 9.10908 17.2496 9.30966C17.1609 9.50637 17.1165 9.73973 17.1165 10.0097C17.1165 10.2874 17.1609 10.5227 17.2496 10.7156C17.3383 10.9084 17.4675 11.055 17.6372 11.1553C17.807 11.2517 18.0075 11.2999 18.239 11.2999C18.5707 11.2999 18.8214 11.2132 18.9911 11.0396C19.1647 10.866 19.2707 10.6481 19.3093 10.3858H18.3662V9.7378H20.1772V12H19.3787L19.3093 11.5314C19.2283 11.6471 19.1319 11.7454 19.02 11.8264C18.912 11.9074 18.7847 11.9672 18.6382 12.0058C18.4955 12.0482 18.3315 12.0694 18.1464 12.0694Z" fill="white"/>
<path d="M13.9497 12.0694C13.6449 12.0694 13.3672 12.0097 13.1165 11.8901C12.8697 11.7667 12.6729 11.5834 12.5264 11.3404C12.3837 11.0974 12.3123 10.7908 12.3123 10.4205V7.95001H13.1802V10.4263C13.1802 10.6076 13.2091 10.7619 13.2669 10.8892C13.3287 11.0164 13.4174 11.1129 13.5331 11.1784C13.6527 11.2402 13.7954 11.271 13.9612 11.271C14.1309 11.271 14.2737 11.2402 14.3894 11.1784C14.5089 11.1129 14.5996 11.0164 14.6613 10.8892C14.723 10.7619 14.7539 10.6076 14.7539 10.4263V7.95001H15.6217V10.4205C15.6217 10.7908 15.5446 11.0974 15.3903 11.3404C15.2399 11.5834 15.0374 11.7667 14.7828 11.8901C14.5321 12.0097 14.2544 12.0694 13.9497 12.0694Z" fill="white"/>
<path d="M8.64053 12V7.95001H10.2142C10.5421 7.95001 10.814 8.00787 11.03 8.12358C11.2499 8.23544 11.4119 8.38587 11.516 8.57487C11.624 8.76387 11.678 8.97408 11.678 9.20551C11.678 9.42151 11.626 9.62401 11.5218 9.81301C11.4215 10.002 11.2634 10.1544 11.0474 10.2701C10.8314 10.3858 10.5517 10.4437 10.2085 10.4437H9.50839V12H8.64053ZM10.7292 12L9.91339 10.2296H10.8449L11.7127 12H10.7292ZM9.50839 9.8188H10.1622C10.3782 9.8188 10.5363 9.76673 10.6366 9.66258C10.7407 9.55844 10.7928 9.41766 10.7928 9.24023C10.7928 9.06666 10.7407 8.92973 10.6366 8.82944C10.5363 8.7253 10.3782 8.67323 10.1622 8.67323H9.50839V9.8188Z" fill="white"/>
<path d="M4.51595 12V7.95001H5.92188C6.39245 7.95001 6.7801 8.03487 7.08481 8.20458C7.39338 8.37044 7.62095 8.60573 7.76752 8.91044C7.91795 9.2113 7.99317 9.56616 7.99317 9.97501C7.99317 10.38 7.91795 10.7349 7.76752 11.0396C7.62095 11.3404 7.39338 11.5757 7.08481 11.7454C6.7801 11.9152 6.39245 12 5.92188 12H4.51595ZM5.38381 11.2537H5.86981C6.18224 11.2537 6.4291 11.2035 6.61038 11.1032C6.79167 10.9991 6.91895 10.8525 6.99224 10.6635C7.06938 10.4707 7.10795 10.2412 7.10795 9.97501C7.10795 9.70501 7.06938 9.47551 6.99224 9.28651C6.91895 9.09366 6.79167 8.94708 6.61038 8.8468C6.4291 8.74266 6.18224 8.69058 5.86981 8.69058H5.38381V11.2537Z" fill="white"/>
<path d="M35.5809 28.5L43.4263 17.0109H45.3794L37.534 28.5H35.5809ZM36.5821 23.215C36.024 23.215 35.5317 23.0892 35.1049 22.8375C34.6782 22.5749 34.339 22.2084 34.0873 21.7379C33.8466 21.2564 33.7262 20.6929 33.7262 20.0473C33.7262 19.4018 33.8466 18.8437 34.0873 18.3732C34.339 17.9027 34.6782 17.5362 35.1049 17.2735C35.5317 17.0109 36.024 16.8796 36.5821 16.8796C37.1401 16.8796 37.6325 17.0109 38.0592 17.2735C38.486 17.5362 38.8197 17.9027 39.0604 18.3732C39.3012 18.8328 39.4215 19.3908 39.4215 20.0473C39.4215 20.6929 39.3012 21.2564 39.0604 21.7379C38.8197 22.2084 38.486 22.5749 38.0592 22.8375C37.6325 23.0892 37.1401 23.215 36.5821 23.215ZM36.5821 21.8692C36.9432 21.8692 37.2331 21.7215 37.452 21.426C37.6708 21.1196 37.7802 20.6601 37.7802 20.0473C37.7802 19.4346 37.6708 18.9805 37.452 18.6851C37.2331 18.3787 36.9432 18.2255 36.5821 18.2255C36.2319 18.2255 35.942 18.3787 35.7122 18.6851C35.4934 18.9914 35.3839 19.4455 35.3839 20.0473C35.3839 20.6491 35.4934 21.1032 35.7122 21.4096C35.942 21.716 36.2319 21.8692 36.5821 21.8692ZM44.3782 28.6313C43.8311 28.6313 43.3387 28.5055 42.9011 28.2538C42.4743 27.9912 42.1406 27.6246 41.8999 27.1541C41.6592 26.6727 41.5388 26.1092 41.5388 25.4636C41.5388 24.818 41.6592 24.26 41.8999 23.7895C42.1406 23.319 42.4743 22.9524 42.9011 22.6898C43.3387 22.4272 43.8311 22.2959 44.3782 22.2959C44.9472 22.2959 45.4451 22.4272 45.8718 22.6898C46.2985 22.9524 46.6323 23.319 46.873 23.7895C47.1137 24.26 47.2341 24.818 47.2341 25.4636C47.2341 26.1092 47.1137 26.6727 46.873 27.1541C46.6323 27.6246 46.2985 27.9912 45.8718 28.2538C45.4451 28.5055 44.9472 28.6313 44.3782 28.6313ZM44.3782 27.2854C44.7393 27.2854 45.0293 27.1323 45.2481 26.8259C45.467 26.5195 45.5764 26.0654 45.5764 25.4636C45.5764 24.8618 45.467 24.4077 45.2481 24.1013C45.0293 23.795 44.7393 23.6418 44.3782 23.6418C44.0281 23.6418 43.7381 23.795 43.5083 24.1013C43.2895 24.3968 43.1801 24.8509 43.1801 25.4636C43.1801 26.0764 43.2895 26.5359 43.5083 26.8423C43.7381 27.1377 44.0281 27.2854 44.3782 27.2854Z" fill="white"/>
<path d="M28.9306 28.697C27.8801 28.697 26.9665 28.4781 26.1896 28.0405C25.4237 27.6028 24.8328 26.9627 24.417 26.1201C24.0012 25.2776 23.7933 24.2381 23.7933 23.0017C23.7933 21.6777 24.0395 20.5561 24.5319 19.637C25.0352 18.7179 25.7246 18.0176 26.5999 17.5362C27.4862 17.0547 28.5038 16.814 29.6527 16.814C30.2655 16.814 30.8509 16.8796 31.4089 17.011C31.967 17.1423 32.4484 17.3392 32.8533 17.6018L31.8685 19.555C31.5512 19.3361 31.212 19.1884 30.8509 19.1118C30.4898 19.0243 30.1123 18.9805 29.7184 18.9805C28.7227 18.9805 27.9349 19.2814 27.3549 19.8832C26.775 20.485 26.485 21.3768 26.485 22.5585C26.485 22.7555 26.485 22.9743 26.485 23.215C26.496 23.4558 26.5288 23.6965 26.5835 23.9372L25.8449 23.2479C26.0528 22.8211 26.3209 22.4655 26.6492 22.181C26.9774 21.8856 27.3659 21.6668 27.8145 21.5245C28.2741 21.3713 28.7774 21.2947 29.3245 21.2947C30.0685 21.2947 30.736 21.4424 31.3269 21.7379C31.9177 22.0333 32.3882 22.4491 32.7384 22.9853C33.0995 23.5214 33.28 24.1506 33.28 24.8728C33.28 25.6496 33.083 26.328 32.6891 26.908C32.3062 27.4769 31.7864 27.9201 31.1299 28.2374C30.4843 28.5438 29.7512 28.697 28.9306 28.697ZM28.7829 26.711C29.1549 26.711 29.4831 26.6454 29.7676 26.514C30.0631 26.3718 30.2928 26.1694 30.457 25.9068C30.6211 25.6442 30.7032 25.3433 30.7032 25.0041C30.7032 24.4788 30.5226 24.063 30.1615 23.7567C29.8114 23.4394 29.3409 23.2807 28.75 23.2807C28.3561 23.2807 28.0114 23.3573 27.716 23.5105C27.4206 23.6527 27.1853 23.8551 27.0103 24.1178C26.8461 24.3694 26.7641 24.6649 26.7641 25.0041C26.7641 25.3323 26.8461 25.6277 27.0103 25.8904C27.1744 26.142 27.4042 26.3444 27.6996 26.4976C27.995 26.6399 28.3561 26.711 28.7829 26.711Z" fill="white"/>
<path d="M18.4801 28.697C17.4297 28.697 16.5161 28.4781 15.7392 28.0405C14.9732 27.6028 14.3824 26.9627 13.9666 26.1201C13.5508 25.2776 13.3429 24.2381 13.3429 23.0017C13.3429 21.6777 13.5891 20.5561 14.0815 19.637C14.5848 18.7179 15.2741 18.0176 16.1495 17.5362C17.0358 17.0547 18.0534 16.814 19.2023 16.814C19.8151 16.814 20.4005 16.8796 20.9585 17.011C21.5165 17.1423 21.998 17.3392 22.4028 17.6018L21.4181 19.555C21.1007 19.3361 20.7615 19.1884 20.4005 19.1118C20.0394 19.0243 19.6619 18.9805 19.268 18.9805C18.2722 18.9805 17.4844 19.2814 16.9045 19.8832C16.3246 20.485 16.0346 21.3768 16.0346 22.5585C16.0346 22.7555 16.0346 22.9743 16.0346 23.215C16.0456 23.4558 16.0784 23.6965 16.1331 23.9372L15.3945 23.2479C15.6024 22.8211 15.8705 22.4655 16.1987 22.181C16.527 21.8856 16.9154 21.6668 17.3641 21.5245C17.8236 21.3713 18.327 21.2947 18.8741 21.2947C19.6181 21.2947 20.2856 21.4424 20.8764 21.7379C21.4673 22.0333 21.9378 22.4491 22.2879 22.9853C22.649 23.5214 22.8296 24.1506 22.8296 24.8728C22.8296 25.6496 22.6326 26.328 22.2387 26.908C21.8557 27.4769 21.336 27.9201 20.6795 28.2374C20.0339 28.5438 19.3008 28.697 18.4801 28.697ZM18.3324 26.711C18.7045 26.711 19.0327 26.6454 19.3172 26.514C19.6126 26.3718 19.8424 26.1694 20.0065 25.9068C20.1707 25.6442 20.2527 25.3433 20.2527 25.0041C20.2527 24.4788 20.0722 24.063 19.7111 23.7567C19.361 23.4394 18.8905 23.2807 18.2996 23.2807C17.9057 23.2807 17.561 23.3573 17.2656 23.5105C16.9701 23.6527 16.7349 23.8551 16.5598 24.1178C16.3957 24.3694 16.3136 24.6649 16.3136 25.0041C16.3136 25.3323 16.3957 25.6277 16.5598 25.8904C16.724 26.142 16.9537 26.3444 17.2492 26.4976C17.5446 26.6399 17.9057 26.711 18.3324 26.711Z" fill="white"/>
<path d="M7.17701 24.9056V22.8539H11.8219V24.9056H7.17701Z" fill="white"/>
</svg>
